<svg width="108" height="108" viewBox="0 0 108 108" fill="none" xmlns="http://www.w3.org/2000/svg">
<path d="M40.1959 33.6014C39.6459 33.5514 39.1595 33.9567 39.1095 34.5068C39.0595 35.0568 39.4648 35.5432 40.0148 35.5932L40.1054 34.5973L40.1959 33.6014ZM70.3986 37.3512L71.3945 37.2607C71.3507 36.7799 70.9698 36.399 70.4891 36.3553L70.3986 37.3512ZM72.1566 67.7349C72.2066 68.2849 72.693 68.6903 73.243 68.6403C73.793 68.5903 74.1984 68.1039 74.1484 67.5539L73.1525 67.6444L72.1566 67.7349ZM36.6443 69.6912C36.2538 70.0817 36.2538 70.7149 36.6443 71.1054C37.0349 71.496 37.668 71.496 38.0586 71.1054L37.3514 70.3983L36.6443 69.6912ZM40.1054 34.5973L40.0148 35.5932L70.308 38.3471L70.3986 37.3512L70.4891 36.3553L40.1959 33.6014L40.1054 34.5973ZM70.3986 37.3512L69.4027 37.4418L72.1566 67.7349L73.1525 67.6444L74.1484 67.5539L71.3945 37.2607L70.3986 37.3512ZM70.3986 37.3512L69.6915 36.6441L36.6443 69.6912L37.3514 70.3983L38.0586 71.1054L71.1057 38.0583L70.3986 37.3512ZM106.75 53.875H105.75C105.75 82.5248 82.5248 105.75 53.875 105.75V106.75V107.75C83.6293 107.75 107.75 83.6293 107.75 53.875H106.75ZM53.875 106.75V105.75C25.2252 105.75 2 82.5248 2 53.875H1H0C0 83.6293 24.1207 107.75 53.875 107.75V106.75ZM1 53.875H2C2 25.2252 25.2252 2 53.875 2V1V0C24.1207 0 0 24.1207 0 53.875H1ZM53.875 1V2C82.5248 2 105.75 25.2252 105.75 53.875H106.75H107.75C107.75 24.1207 83.6293 0 53.875 0V1Z" fill="#C6C6C6"/>
</svg>
